<svg xmlns="http://www.w3.org/2000/svg" width="500" height="500" fill="#7850a8"><path d="M0 392.1h71.4V500H0V392.1zM428.6 0H500v107.9h-71.4V0z"/><path d="M428.6 0H71.4C32 0 0 48.3 0 107.9v284.2C0 451.7 32 500 71.4 500h357.2c39.4 0 71.4-48.3 71.4-107.9V107.9C500 48.3 468 0 428.6 0zM400 328.8c0 31.5 0 47.3-6.1 59.3a56.24 56.24 0 0 1-24.6 24.6c-12 6.1-27.8 6.1-59.3 6.1H190c-31.5 0-47.3 0-59.3-6.1a56.24 56.24 0 0 1-24.6-24.6c-6.1-12-6.1-27.8-6.1-59.3v-26.2c0-31.5 0-47.3 6.1-59.3a56.24 56.24 0 0 1 24.6-24.6c6.7-3.4 14.5-4.9 25.5-5.6v-38c0-51.8 42-93.8 93.8-93.8s93.8 42 93.8 93.8v38c11 .7 18.9 2.2 25.5 5.6a56.24 56.24 0 0 1 24.6 24.6c6.1 12 6.1 27.8 6.1 59.3v26.2z"/><path d="M250 292.4v37.5" stroke="#7850a8" stroke-width="45" stroke-linecap="round" stroke-linejoin="round" stroke-miterlimit="133.3333"/></svg>